<svg width="33" height="39" viewBox="0 0 33 39" fill="none" xmlns="http://www.w3.org/2000/svg">
<path d="M8.41945 16.0998C6.97762 14.3272 5.62405 13.9465 4.35874 14.9578C2.45993 16.4748 1.91497 21.7638 3.44222 26.4276C4.96947 31.0913 7.94112 37.4403 13.9391 37.4403C19.937 37.4403 21.355 31.0503 23.8013 27.1878C26.2485 23.3252 27.5425 19.5985 25.1449 14.9578" stroke="#F2A2BD" stroke-width="2" stroke-linecap="round" stroke-linejoin="round"/>
<path d="M5.39574 14.407C4.26654 12.6817 3.12763 10.9628 1.97907 9.25037C0.743947 7.41818 3.9018 5.04958 5.39574 6.66053C6.3917 7.73508 7.7148 9.31728 9.36505 11.4071" stroke="#F2A2BD" stroke-width="2" stroke-linecap="round"/>
<path d="M8.83289 20.901C8.4189 15.7214 8.75544 12.3488 9.84251 10.7834C11.474 8.43448 14.5037 7.54443 17.3575 7.54443C19.0561 7.54443 20.6073 8.26791 22.011 9.71487" stroke="#F2A2BD" stroke-width="2" stroke-linecap="round" stroke-linejoin="round"/>
<path d="M31.0205 9.77402C31.521 11.5131 30.7045 13.1027 28.1881 13.4623C25.6717 13.8219 23.7866 15.0869 22.4267 16.1512C21.0669 17.2155 18.6342 20.4443 18.1533 22.0646C17.6724 23.685 14.928 22.1953 14.1909 21.5479C13.4537 20.9013 12.7285 19.4842 14.1909 18.0022C15.6532 16.5202 15.3363 16.2247 15.3363 14.7222C15.3363 13.2189 23.333 8.24763 27.837 7.79321C28.8381 7.73513 30.5208 8.03409 31.0205 9.77402Z" stroke="#F2A2BD" stroke-width="2"/>
<path d="M15.6524 2.4169V6.91238M13.3453 8.15519C10.7674 4.91505 8.68893 3.10707 7.10986 2.73123M10.524 5.00417L11.3696 1.53027M26.4192 8.15519C26.1441 9.09819 26.1441 9.98254 26.4192 10.8082C26.6948 11.6339 27.2844 12.5186 28.1881 13.4621" stroke="#F2A2BD" stroke-width="2" stroke-linecap="round"/>
</svg>
